<svg width="10" height="10" viewBox="0 0 10 10" fill="none" xmlns="http://www.w3.org/2000/svg">
<path d="M4.5 1C4.23478 1 3.98043 1.10536 3.79289 1.29289C3.60536 1.48043 3.5 1.73478 3.5 2V6C3.5 6.26522 3.60536 6.51957 3.79289 6.70711C3.98043 6.89464 4.23478 7 4.5 7H7.5C7.76522 7 8.01957 6.89464 8.20711 6.70711C8.39464 6.51957 8.5 6.26522 8.5 6V3.207C8.49994 2.94181 8.39455 2.68749 8.207 2.5L7 1.293C6.81251 1.10545 6.5582 1.00006 6.293 1H4.5Z" fill="#B2B2B2"/>
<path d="M1.5 4C1.5 3.73478 1.60536 3.48043 1.79289 3.29289C1.98043 3.10536 2.23478 3 2.5 3V8H6.5C6.5 8.26522 6.39464 8.51957 6.20711 8.70711C6.01957 8.89464 5.76522 9 5.5 9H2.5C2.23478 9 1.98043 8.89464 1.79289 8.70711C1.60536 8.51957 1.5 8.26522 1.5 8V4Z" fill="#B2B2B2"/>
</svg>
