<svg width="32" height="32" viewBox="0 0 32 32" fill="none" xmlns="http://www.w3.org/2000/svg">
<path fill-rule="evenodd" clip-rule="evenodd" d="M9.5999 3.19995C8.75121 3.19995 7.93728 3.53709 7.33716 4.13721C6.73704 4.73733 6.3999 5.55126 6.3999 6.39995V25.5999C6.3999 26.4486 6.73704 27.2626 7.33716 27.8627C7.93728 28.4628 8.75121 28.7999 9.5999 28.7999H22.3999C23.2486 28.7999 24.0625 28.4628 24.6626 27.8627C25.2628 27.2626 25.5999 26.4486 25.5999 25.5999V6.39995C25.5999 5.55126 25.2628 4.73733 24.6626 4.13721C24.0625 3.53709 23.2486 3.19995 22.3999 3.19995H9.5999ZM11.1999 6.39995C10.7756 6.39995 10.3686 6.56852 10.0685 6.86858C9.76847 7.16864 9.5999 7.5756 9.5999 7.99995C9.5999 8.4243 9.76847 8.83126 10.0685 9.13132C10.3686 9.43138 10.7756 9.59995 11.1999 9.59995H20.7999C21.2242 9.59995 21.6312 9.43138 21.9313 9.13132C22.2313 8.83126 22.3999 8.4243 22.3999 7.99995C22.3999 7.5756 22.2313 7.16864 21.9313 6.86858C21.6312 6.56852 21.2242 6.39995 20.7999 6.39995H11.1999ZM20.7999 17.6C21.2242 17.6 21.6312 17.7685 21.9313 18.0686C22.2313 18.3686 22.3999 18.7756 22.3999 19.2V24C22.3999 24.4243 22.2313 24.8313 21.9313 25.1313C21.6312 25.4314 21.2242 25.5999 20.7999 25.5999C20.3756 25.5999 19.9686 25.4314 19.6685 25.1313C19.3685 24.8313 19.1999 24.4243 19.1999 24V19.2C19.1999 18.7756 19.3685 18.3686 19.6685 18.0686C19.9686 17.7685 20.3756 17.6 20.7999 17.6ZM15.9999 22.4C15.5756 22.4 15.1686 22.5685 14.8685 22.8686C14.5685 23.1686 14.3999 23.5756 14.3999 24C14.3999 24.4243 14.5685 24.8313 14.8685 25.1313C15.1686 25.4314 15.5756 25.5999 15.9999 25.5999H16.0159C16.4402 25.5999 16.8472 25.4314 17.1473 25.1313C17.4473 24.8313 17.6159 24.4243 17.6159 24C17.6159 23.5756 17.4473 23.1686 17.1473 22.8686C16.8472 22.5685 16.4402 22.4 16.0159 22.4H15.9999ZM9.5999 24C9.5999 23.5756 9.76847 23.1686 10.0685 22.8686C10.3686 22.5685 10.7756 22.4 11.1999 22.4H11.2159C11.6402 22.4 12.0472 22.5685 12.3473 22.8686C12.6473 23.1686 12.8159 23.5756 12.8159 24C12.8159 24.4243 12.6473 24.8313 12.3473 25.1313C12.0472 25.4314 11.6402 25.5999 11.2159 25.5999H11.1999C10.7756 25.5999 10.3686 25.4314 10.0685 25.1313C9.76847 24.8313 9.5999 24.4243 9.5999 24ZM11.1999 17.6C10.7756 17.6 10.3686 17.7685 10.0685 18.0686C9.76847 18.3686 9.5999 18.7756 9.5999 19.2C9.5999 19.6243 9.76847 20.0313 10.0685 20.3313C10.3686 20.6314 10.7756 20.7999 11.1999 20.7999H11.2159C11.6402 20.7999 12.0472 20.6314 12.3473 20.3313C12.6473 20.0313 12.8159 19.6243 12.8159 19.2C12.8159 18.7756 12.6473 18.3686 12.3473 18.0686C12.0472 17.7685 11.6402 17.6 11.2159 17.6H11.1999ZM14.3999 19.2C14.3999 18.7756 14.5685 18.3686 14.8685 18.0686C15.1686 17.7685 15.5756 17.6 15.9999 17.6H16.0159C16.4402 17.6 16.8472 17.7685 17.1473 18.0686C17.4473 18.3686 17.6159 18.7756 17.6159 19.2C17.6159 19.6243 17.4473 20.0313 17.1473 20.3313C16.8472 20.6314 16.4402 20.7999 16.0159 20.7999H15.9999C15.5756 20.7999 15.1686 20.6314 14.8685 20.3313C14.5685 20.0313 14.3999 19.6243 14.3999 19.2ZM20.7999 12.8C20.3756 12.8 19.9686 12.9685 19.6685 13.2686C19.3685 13.5686 19.1999 13.9756 19.1999 14.4C19.1999 14.8243 19.3685 15.2313 19.6685 15.5313C19.9686 15.8314 20.3756 16 20.7999 16H20.8159C21.2402 16 21.6472 15.8314 21.9473 15.5313C22.2473 15.2313 22.4159 14.8243 22.4159 14.4C22.4159 13.9756 22.2473 13.5686 21.9473 13.2686C21.6472 12.9685 21.2402 12.8 20.8159 12.8H20.7999ZM14.3999 14.4C14.3999 13.9756 14.5685 13.5686 14.8685 13.2686C15.1686 12.9685 15.5756 12.8 15.9999 12.8H16.0159C16.4402 12.8 16.8472 12.9685 17.1473 13.2686C17.4473 13.5686 17.6159 13.9756 17.6159 14.4C17.6159 14.8243 17.4473 15.2313 17.1473 15.5313C16.8472 15.8314 16.4402 16 16.0159 16H15.9999C15.5756 16 15.1686 15.8314 14.8685 15.5313C14.5685 15.2313 14.3999 14.8243 14.3999 14.4ZM11.1999 12.8C10.7756 12.8 10.3686 12.9685 10.0685 13.2686C9.76847 13.5686 9.5999 13.9756 9.5999 14.4C9.5999 14.8243 9.76847 15.2313 10.0685 15.5313C10.3686 15.8314 10.7756 16 11.1999 16H11.2159C11.6402 16 12.0472 15.8314 12.3473 15.5313C12.6473 15.2313 12.8159 14.8243 12.8159 14.4C12.8159 13.9756 12.6473 13.5686 12.3473 13.2686C12.0472 12.9685 11.6402 12.8 11.2159 12.8H11.1999Z" fill="white"/>
</svg>
