<svg width="10" height="10" viewBox="0 0 10 10" fill="none" xmlns="http://www.w3.org/2000/svg">
<path fill-rule="evenodd" clip-rule="evenodd" d="M4.99992 1.66671C4.11586 1.66671 3.26802 2.0179 2.6429 2.64302C2.01777 3.26814 1.66659 4.11599 1.66659 5.00004C1.66659 5.43778 1.7528 5.87123 1.92032 6.27565C2.08784 6.68007 2.33337 7.04753 2.6429 7.35706C2.95242 7.66659 3.31989 7.91212 3.72431 8.07964C4.12873 8.24715 4.56218 8.33337 4.99992 8.33337C5.43766 8.33337 5.87111 8.24715 6.27553 8.07964C6.67995 7.91212 7.04741 7.66659 7.35694 7.35706C7.66647 7.04753 7.912 6.68007 8.07952 6.27565C8.24703 5.87123 8.33325 5.43778 8.33325 5.00004C8.33325 4.11599 7.98206 3.26814 7.35694 2.64302C6.73182 2.0179 5.88397 1.66671 4.99992 1.66671ZM2.05364 2.05376C2.83504 1.27236 3.89485 0.833374 4.99992 0.833374C6.10499 0.833374 7.1648 1.27236 7.9462 2.05376C8.7276 2.83516 9.16659 3.89497 9.16659 5.00004C9.16659 5.54721 9.05881 6.08903 8.84942 6.59455C8.64002 7.10008 8.33311 7.55941 7.9462 7.94632C7.55929 8.33323 7.09996 8.64014 6.59443 8.84954C6.08891 9.05893 5.54709 9.16671 4.99992 9.16671C4.45274 9.16671 3.91093 9.05893 3.4054 8.84954C2.89988 8.64014 2.44055 8.33323 2.05364 7.94632C1.66673 7.55941 1.35982 7.10008 1.15042 6.59455C0.941026 6.08903 0.833252 5.54721 0.833252 5.00004C0.833252 3.89497 1.27224 2.83516 2.05364 2.05376ZM4.58325 3.33337C4.58325 3.10326 4.7698 2.91671 4.99992 2.91671H5.00409C5.2342 2.91671 5.42075 3.10326 5.42075 3.33337C5.42075 3.56349 5.2342 3.75004 5.00409 3.75004H4.99992C4.7698 3.75004 4.58325 3.56349 4.58325 3.33337ZM4.22881 4.78099C4.30473 4.65815 4.43884 4.58337 4.58325 4.58337H4.99992C5.23004 4.58337 5.41659 4.76992 5.41659 5.00004V5.73501L5.78926 6.48037C5.85384 6.60953 5.84694 6.76292 5.77102 6.88576C5.6951 7.0086 5.56099 7.08337 5.41659 7.08337H4.99992C4.7698 7.08337 4.58325 6.89683 4.58325 6.66671V5.93174L4.21057 5.18638C4.14599 5.05722 4.15289 4.90383 4.22881 4.78099Z" fill="#B2B2B2"/>
</svg>
